<svg class="ghrn_icon" aria-hidden="true" width="33px" height="65px" viewBox="0 0 33 65" version="1.1" xmlns="http://www.w3.org/2000/svg" xmlns:xlink="http://www.w3.org/1999/xlink">
    <g stroke="none" stroke-width="1" fill="none" fill-rule="evenodd">
        <g id="GH_hompage_desktop_1.2" transform="translate(-920.000000, -3059.000000)" fill-rule="nonzero">
            <g id="Group" transform="translate(920.000000, 3059.000000)">
                <path d="M19.5533333,6.24666667 C21.2101876,6.24666667 22.5533333,4.90352092 22.5533333,3.24666667 C22.5533333,1.58981242 21.2101876,0.246666667 19.5533333,0.246666667 C17.8964791,0.246666667 16.5533333,1.58981242 16.5533333,3.24666667 C16.5533333,4.90352092 17.8964791,6.24666667 19.5533333,6.24666667 L19.5533333,6.24666667 Z" id="Path" fill="#137C5f"></path>
                <polygon id="Path" fill="#3D3D3D" points="31.54 38.2933333 15.2066667 23.9933333 32.9666667 3.85333333 29.12 -8.52651283e-14 14.1266667 17 14.1266667 0.0733333333 8.69333333 0.0733333333 8.69333333 18.3 3.69333333 13.92 0.113333333 18.0133333 7.52 24.4933333 0.186666667 32.8066667 4.26666667 36.4 8.69333333 31.38 8.69333333 36.8666667 2.4158453e-13 47.1266667 4.14666667 50.64 8.69333333 45.28 8.69333333 64.2 14.1266667 64.2 14.1266667 30.28 23.9533333 38.8733333 16.8333333 47.3533333 26.46 64.2 32.72 64.2 23.4333333 47.9466667"></polygon>
            </g>
        </g>
    </g>
</svg>