<svg class="ghrn_logo" aria-hidden="true" xmlns="http://www.w3.org/2000/svg" viewBox="0 0 224.69 97.01"><defs><style>.cls-1{fill:#3d3d3d;}.cls-2{fill:#137C5f;}</style></defs><g id="Layer_2" data-name="Layer 2"><g id="design"><path class="cls-1" d="M63.35,44.27a11.59,11.59,0,0,0,11.82,0,12.25,12.25,0,0,0,4.23-4.35A11.88,11.88,0,0,0,81,33.83v-10q0-.3-.24-.3H69.53a.27.27,0,0,0-.3.3v6.72a.27.27,0,0,0,.3.3h4.2v2.94a4.82,4.82,0,0,1-1.29,3.42,4.21,4.21,0,0,1-3.21,1.38,4.14,4.14,0,0,1-3.12-1.41,4.78,4.78,0,0,1-1.32-3.39v-19a4.76,4.76,0,0,1,1.35-3.36A4.13,4.13,0,0,1,69.23,10a4.06,4.06,0,0,1,3.21,1.5,5.59,5.59,0,0,1,1.29,3.78v2.28a.21.21,0,0,0,.24.24h6.72q.3,0,.3-.24V14.81a11.89,11.89,0,0,0-1.56-6.06A11.76,11.76,0,0,0,75.2,4.46a11.45,11.45,0,0,0-6-1.59,11.07,11.07,0,0,0-5.85,1.62,12.16,12.16,0,0,0-4.26,4.35,11.65,11.65,0,0,0-1.59,6v19a11.88,11.88,0,0,0,1.59,6.09A12.25,12.25,0,0,0,63.35,44.27Z"/><path class="cls-1" d="M107,27.41a.21.21,0,0,0,.24-.24l-.06-6.78a.21.21,0,0,0-.24-.24H94.61V10.79h12.3a.21.21,0,0,0,.24-.24V3.83q0-.3-.24-.3H87.65a.21.21,0,0,0-.24.24L87.35,45q0,.3.24.3H107a.21.21,0,0,0,.24-.24V38.21q0-.3-.24-.3H94.61V27.41Z"/><path class="cls-1" d="M135.5,8.81a12.33,12.33,0,0,0-4.23-4.32,11,11,0,0,0-5.88-1.62,11.22,11.22,0,0,0-5.88,1.62,12.16,12.16,0,0,0-4.29,4.32,11.6,11.6,0,0,0-1.59,6l-.06,19a11.6,11.6,0,0,0,1.62,6,12.67,12.67,0,0,0,4.29,4.38,11.41,11.41,0,0,0,11.82,0,12.41,12.41,0,0,0,4.26-4.38,11.76,11.76,0,0,0,1.59-6l-.06-19A11.6,11.6,0,0,0,135.5,8.81Zm-7,28.35a4.16,4.16,0,0,1-3.15,1.47,4.2,4.2,0,0,1-3.18-1.41,4.78,4.78,0,0,1-1.32-3.39v-19a4.65,4.65,0,0,1,1.32-3.39,4.29,4.29,0,0,1,3.18-1.35,4.12,4.12,0,0,1,3.18,1.38,4.8,4.8,0,0,1,1.26,3.36l.06,19A4.79,4.79,0,0,1,128.54,37.16Z"/><path class="cls-1" d="M166,22.4a12.39,12.39,0,0,0,1.56-3,11.36,11.36,0,0,0,.66-4,11.39,11.39,0,0,0-1.62-6,12.16,12.16,0,0,0-4.35-4.26,11.65,11.65,0,0,0-6-1.59H144.17a.21.21,0,0,0-.24.24L143.81,45q0,.3.24.3h6.78q.24,0,.24-.3l.06-17.64h4a5,5,0,0,1,3.75,1.59,5.23,5.23,0,0,1,1.53,3.75V45.11q0,.18.24.18h6.78a.27.27,0,0,0,.3-.3l-.06-12.3a12.24,12.24,0,0,0-3.24-8.46A10.44,10.44,0,0,0,166,22.4Zm-6.42-3.63a4.64,4.64,0,0,1-3.3,1.38h-5.16V10.73h5.16a4.6,4.6,0,0,1,3.33,1.38,4.6,4.6,0,0,1,0,6.66Z"/><path class="cls-1" d="M191.78,4.46a11.45,11.45,0,0,0-6-1.59A11.07,11.07,0,0,0,180,4.49a12.16,12.16,0,0,0-4.26,4.35,11.65,11.65,0,0,0-1.59,6v19a11.88,11.88,0,0,0,1.59,6.09,12.25,12.25,0,0,0,4.23,4.35,11.59,11.59,0,0,0,11.82,0A12.25,12.25,0,0,0,196,39.92a11.88,11.88,0,0,0,1.59-6.09v-10q0-.3-.24-.3H186.11a.27.27,0,0,0-.3.3v6.72a.27.27,0,0,0,.3.3h4.2v2.94A4.82,4.82,0,0,1,189,37.25a4.21,4.21,0,0,1-3.21,1.38,4.14,4.14,0,0,1-3.12-1.41,4.78,4.78,0,0,1-1.32-3.39v-19a4.76,4.76,0,0,1,1.35-3.36A4.13,4.13,0,0,1,185.81,10a4.06,4.06,0,0,1,3.21,1.5,5.59,5.59,0,0,1,1.29,3.78v2.28a.21.21,0,0,0,.24.24h6.72q.3,0,.3-.24V14.81A11.89,11.89,0,0,0,196,8.75,11.76,11.76,0,0,0,191.78,4.46Z"/><path class="cls-1" d="M224.45,37.91H212.09V27.41h12.36a.21.21,0,0,0,.24-.24l-.06-6.78a.21.21,0,0,0-.24-.24h-12.3V10.79h12.3a.21.21,0,0,0,.24-.24V3.83q0-.3-.24-.3H205.13a.21.21,0,0,0-.24.24L204.83,45q0,.3.24.3h19.38a.21.21,0,0,0,.24-.24V38.21Q224.69,37.91,224.45,37.91Z"/><path class="cls-1" d="M83.19,54.65H76.53a.21.21,0,0,0-.24.24V71.21h-9l.06-16.32q0-.24-.3-.24H60.39q-.3,0-.3.24L60,96.11q0,.3.24.3h6.78q.24,0,.24-.3V78.47h9V96.11a.27.27,0,0,0,.3.3h6.72a.27.27,0,0,0,.3-.3l-.12-41.22Q83.49,54.65,83.19,54.65Z"/><path class="cls-1" d="M100.27,54.65H93.56a.22.22,0,0,0-.25.24l0,41.22a.26.26,0,0,0,.3.3h6.78c.15,0,.23-.1.23-.3l0-41.22A.22.22,0,0,0,100.27,54.65Z"/><path class="cls-1" d="M129.68,78.53a.21.21,0,0,0,.24-.24l-.06-6.78a.22.22,0,0,0-.24-.24h-12.3V61.91h12.3a.22.22,0,0,0,.24-.24V55c0-.2-.09-.3-.24-.3H110.36a.21.21,0,0,0-.24.24l-.06,41.22q0,.3.24.3h19.38a.21.21,0,0,0,.24-.24V89.33q0-.3-.24-.3H117.32V78.53Z"/><path class="cls-1" d="M161,73.52a12.39,12.39,0,0,0,1.56-3,12.17,12.17,0,0,0-1-10,12.16,12.16,0,0,0-4.35-4.26,11.65,11.65,0,0,0-6-1.59H139.12a.21.21,0,0,0-.24.24l-.12,41.22q0,.3.24.3h6.78q.24,0,.24-.3l.06-17.64h4a5,5,0,0,1,3.75,1.59,5.23,5.23,0,0,1,1.53,3.75V96.23q0,.18.24.18h6.78a.27.27,0,0,0,.3-.3l-.06-12.3a12.24,12.24,0,0,0-3.24-8.46A10.44,10.44,0,0,0,161,73.52Zm-6.42-3.63a4.64,4.64,0,0,1-3.3,1.38h-5.16V61.85h5.16a4.6,4.6,0,0,1,3.33,1.38,4.6,4.6,0,0,1,0,6.66Z"/><path class="cls-1" d="M192.28,59.93a12.41,12.41,0,0,0-4.23-4.32A11,11,0,0,0,182.17,54a11.2,11.2,0,0,0-5.88,1.62A12.08,12.08,0,0,0,172,59.93a11.51,11.51,0,0,0-1.59,6l-.07,19A11.6,11.6,0,0,0,172,91a12.58,12.58,0,0,0,4.29,4.38,11.41,11.41,0,0,0,11.82,0A12.58,12.58,0,0,0,192.34,91a11.86,11.86,0,0,0,1.59-6l-.06-19A11.7,11.7,0,0,0,192.28,59.93Zm-7,28.35a4.2,4.2,0,0,1-6.33.06A4.74,4.74,0,0,1,177.67,85v-19A4.61,4.61,0,0,1,179,62.54a4.27,4.27,0,0,1,3.18-1.35,4.1,4.1,0,0,1,3.17,1.38,4.81,4.81,0,0,1,1.27,3.36l.06,19A4.79,4.79,0,0,1,185.32,88.28Z"/><path class="cls-1" d="M224.27,54.65h-5.94q-.54,0-.54.48l.3,23.16L208,54.65h-5.4a.42.42,0,0,0-.48.48L202.13,96q0,.42.48.42h6q.54,0,.54-.48l-.42-21.6,10.38,22.08h5.28q.3,0,.3-.36l-.06-40.92Q224.63,54.65,224.27,54.65Z"/><path class="cls-2" d="M29.33,9.37a4.5,4.5,0,1,0-4.5-4.5A4.5,4.5,0,0,0,29.33,9.37Z"/><polygon class="cls-1" points="47.31 57.44 22.81 35.99 49.45 5.78 43.68 0 21.19 25.5 21.19 0.11 13.04 0.11 13.04 27.45 5.54 20.88 0.17 27.02 11.28 36.74 0.28 49.21 6.4 54.6 13.04 47.07 13.04 55.3 0 70.69 6.22 75.96 13.04 67.92 13.04 96.3 21.19 96.3 21.19 45.42 35.93 58.31 25.25 71.03 39.69 96.3 49.08 96.3 35.15 71.92 47.31 57.44"/></g></g></svg>