<svg class="icon_sun" aria-hidden="true" width="27px" height="27px" viewBox="0 0 27 27" version="1.1" xmlns="http://www.w3.org/2000/svg" xmlns:xlink="http://www.w3.org/1999/xlink">
    <title>icon_sun</title>
    <g id="Style-Guide" stroke="none" stroke-width="1" fill="none" fill-rule="evenodd">
        <g id="GH_hompage_desktop_1.2" transform="translate(-52.000000, -1018.000000)">
            <g id="icon_sun" transform="translate(53.000000, 1019.000000)">
                <path d="M12.5,8.5 C14.709139,8.5 16.5,10.290861 16.5,12.5 C16.5,14.709139 14.709139,16.5 12.5,16.5 C10.290861,16.5 8.5,14.709139 8.5,12.5 C8.5,10.290861 10.290861,8.5 12.5,8.5 M12.5,6.5 C9.1862915,6.5 6.5,9.1862915 6.5,12.5 C6.5,15.8137085 9.1862915,18.5 12.5,18.5 C15.8137085,18.5 18.5,15.8137085 18.5,12.5 C18.5,9.1862915 15.8137085,6.5 12.5,6.5 L12.5,6.5 Z" id="Shape" fill="#000000" fill-rule="nonzero"></path>
                <path d="M12.5,8.5 C14.709139,8.5 16.5,10.290861 16.5,12.5 C16.5,14.709139 14.709139,16.5 12.5,16.5 C10.290861,16.5 8.5,14.709139 8.5,12.5 C8.5,10.290861 10.290861,8.5 12.5,8.5" id="centre" fill="#EFD036" fill-rule="nonzero"></path>
                <line x1="12.5" y1="0" x2="12.5" y2="4" id="Path" stroke="#000000" stroke-width="2" stroke-linecap="round"></line>
                <line x1="12.5" y1="21" x2="12.5" y2="25" id="Path" stroke="#000000" stroke-width="2" stroke-linecap="round"></line>
                <line x1="0" y1="12.5" x2="4" y2="12.5" id="Path" stroke="#000000" stroke-width="2" stroke-linecap="round"></line>
                <line x1="21" y1="12.5" x2="25" y2="12.5" id="Path" stroke="#000000" stroke-width="2" stroke-linecap="round"></line>
                <line x1="4.01" y1="4.01" x2="6.14" y2="6.14" id="Path" stroke="#000000" stroke-width="2" stroke-linecap="round"></line>
                <line x1="18.86" y1="18.86" x2="20.99" y2="20.99" id="Path" stroke="#000000" stroke-width="2" stroke-linecap="round"></line>
                <line x1="4.01" y1="20.99" x2="6.14" y2="18.86" id="Path" stroke="#000000" stroke-width="2" stroke-linecap="round"></line>
                <line x1="18.86" y1="6.14" x2="20.99" y2="4.01" id="Path" stroke="#000000" stroke-width="2" stroke-linecap="round"></line>
            </g>
        </g>
    </g>
</svg>