<svg version="1.2" xmlns="http://www.w3.org/2000/svg" viewBox="0 0 250 250" width="250" height="250">
	<title>Nuxt_logo_(2021)-svg</title>
	<style>
		.s0 { fill: #fff } 
		.s1 { fill: #80eec0 } 
		.s2 { fill: #00dc82 } 
	</style>
	<rect width="250" height="250" id="Layer 1" style="fill: #001e26"/>
	<path id="Layer" class="s0" d="m90.3 112.5h6.5l13.8 22v-22h5.9v31.1h-6.4l-13.8-21.9v21.9h-6z"/>
	<path id="Layer" class="s0" d="m143.3 143.6h-5.6v-3.4c-1.2 2.4-3.8 3.8-7.1 3.8-5.2 0-8.5-3.7-8.5-8.9v-13.9h5.6v12.7c0 3.1 1.9 5.2 4.7 5.2 3.2 0 5.3-2.4 5.3-5.6v-12.3h5.6z"/>
	<path id="Layer" class="s0" d="m162.7 143.3l-5.3-7.5-5.4 7.5h-5.9l8.2-11.7-7.6-10.7h6.1l4.6 6.4 4.5-6.4h6.1l-7.6 10.7 8.2 11.7z"/>
	<path id="Layer" class="s0" d="m180 114.5v6.7h6.3v4.6h-6.3v11.1c0 0.4 0.1 0.8 0.4 1 0.3 0.3 0.6 0.4 1 0.4h4.9v5.3h-3.7c-5 0-8.2-2.8-8.2-7.8v-10h-4.5v-4.6h2.8c1.3 0 2.1-0.7 2.1-2v-4.7z"/>
	<path id="Layer" class="s0" d="m200.4 136.6v-24.1h6v22.2c0 6-3 8.9-8 8.9h-6.9v-5.2h7.1c0.5 0 0.9-0.2 1.2-0.6 0.4-0.3 0.6-0.7 0.6-1.2z"/>
	<path id="Layer" class="s0" d="m209.9 133.2h5.8c0.3 3.5 2.7 5.7 6.5 5.7 3.4 0 5.8-1.4 5.8-4.1 0-6.7-17.1-2.1-17.1-14 0-5.1 4.5-8.7 10.9-8.7 6.8 0 11.3 3.8 11.6 9.7h-5.8c-0.2-2.8-2.4-4.6-5.8-4.6-3.1 0-5.1 1.4-5.1 3.6 0 6.9 17.3 1.8 17.3 13.9 0 5.8-4.8 9.3-11.8 9.3-7.2 0-11.9-4.3-12.3-10.8z"/>
	<path id="Layer" fill-rule="evenodd" class="s1" d="m48.9 115.2l-13.8 23.6c-1.1 1.9-0.6 4.1 0.9 5.3h-14.3c-3.3 0-5.4-3.6-3.7-6.5l18.2-31.3c1.7-2.9 5.9-2.9 7.6 0z"/>
	<path id="Layer" class="s2" d="m55.3 113.1c1.4-2.3 4.9-2.3 6.3 0l15.1 25.7c1.3 2.4-0.4 5.3-3.2 5.3h-30.2c-2.7 0-4.5-2.9-3.1-5.3z"/>
</svg>